<?xml version="1.0" encoding="utf-8"?>
<!-- Generator: Adobe Illustrator 16.0.0, SVG Export Plug-In . SVG Version: 6.00 Build 0)  -->
<!DOCTYPE svg PUBLIC "-//W3C//DTD SVG 1.1//EN" "http://www.w3.org/Graphics/SVG/1.1/DTD/svg11.dtd">
<svg version="1.1" id="layer" xmlns="http://www.w3.org/2000/svg" xmlns:xlink="http://www.w3.org/1999/xlink" x="0px" y="0px"
	 width="768px" height="400px" viewBox="0 302.5 768 400" enable-background="new 0 302.5 768 400" xml:space="preserve">
<g>
	<polygon fill="#00A55D" points="255.961,536.265 195.298,536.265 227.102,436.26 287.882,436.26 	"/>
	<path fill="#00A55D" d="M296.952,407.755c-2.474,7.892-10.955,14.253-18.847,14.253h-32.157c-7.892,0-12.25-6.479-9.776-14.253
		l4.594-14.253c2.474-7.892,10.955-14.253,18.847-14.253h32.157c7.892,0,12.25,6.479,9.776,14.253L296.952,407.755z"/>
	<path fill="#00A55D" d="M349.723,522.365c-1.178,3.77-5.183,6.832-8.952,6.832h-0.707c-3.769,0-5.89-3.063-4.594-6.832
		l22.97-72.088c1.178-3.77,5.183-6.832,8.952-6.832h0.707c3.769,0,5.889,3.063,4.594,6.832L349.723,522.365z M395.308,379.131
		l-20.378,63.96c1.179-3.77-0.942-6.832-4.594-6.832h-53.948c-7.892,0-16.373,6.479-18.847,14.253l-22.733,71.382
		c-2.474,7.892,1.884,14.253,9.776,14.253h121.443l49.943-157.134h-60.663"/>
	<path fill="#00A55D" d="M508.388,450.277c1.178-3.77,5.183-6.832,8.952-6.832h0.707c3.77,0,5.771,3.063,4.594,6.832l-10.365,32.511
		h-14.253L508.388,450.277z M570.699,489.855l12.486-39.225c2.474-7.893-1.885-14.253-9.777-14.253H466.219
		c-7.893,0-16.373,6.479-18.847,14.253l-22.734,71.382c-2.474,7.892,1.885,14.252,9.777,14.252h121.561l2.238-7.185h-60.663
		c-7.892,0-12.25-6.479-9.776-14.253l7.892-24.972H570.699"/>
	<path fill="#00A55D" d="M674.827,443.445h60.662l2.238-7.186H616.402c-7.892,0-16.373,6.479-18.847,14.253l-22.733,71.5
		c-2.474,7.892,1.885,14.252,9.776,14.252h121.443l2.237-7.185h-60.662c-7.892,0-12.25-6.479-9.776-14.253l18.14-57.129
		C658.454,449.924,666.935,443.445,674.827,443.445"/>
	<polygon fill="#00A55D" points="223.921,379.131 192,479.136 130.984,379.131 81.041,379.131 30.979,536.265 38.165,536.265 
		69.968,436.26 130.984,536.265 181.045,536.265 230.989,379.131 	"/>
	<path fill="#231815" d="M641.728,631.676c0.472,1.061,1.061,2.356,2.238,3.534c2.355,2.355,6.479,4.005,11.308,4.005
		c1.414,0,2.827-0.118,4.24-0.589c4.83-1.531,4.83-5.536,4.83-5.772c0-0.706-0.118-1.413-0.472-2.12
		c-1.296-2.826-4.122-3.887-9.659-5.064c-2.002-0.472-3.887-0.825-5.889-1.649c-1.649-0.589-8.246-3.063-8.246-10.954
		c0-6.95,5.654-14.725,18.376-14.725c5.771,0,10.248,2.003,12.957,4.83c2.591,2.591,3.063,5.183,3.416,6.949l-2.945,0.825
		c-0.824-1.531-2.944-6.008-11.543-6.008c-6.243,0-8.717,2.944-8.717,5.771c0,3.888,3.887,5.065,7.774,6.008
		c1.648,0.354,3.18,0.707,4.829,1.06c2.355,0.589,5.771,1.531,8.245,4.123c2.003,2.12,3.416,5.419,3.416,9.07
		c0,7.538-6.007,14.724-18.61,14.724c-8.481,0-12.84-3.181-14.725-5.065c-2.944-2.944-3.416-6.125-3.651-8.245L641.728,631.676z"/>
	<path fill="#231815" d="M258.199,600.108c-0.118-4.477,0-7.774,0.942-10.366c2.002-5.536,7.303-8.01,13.193-8.01
		c6.007,0,8.245,2.003,10.248,3.888l-1.767,2.591c-0.942-0.471-2.356-1.06-4.476-1.06c-2.003,0-4.476,0.824-5.772,3.769
		c-1.06,2.238-1.06,4.123-1.06,9.424h10.012v6.832h-10.012v36.868h-11.308v-36.868h-6.596v-6.832h6.596V600.108z"/>
	<path fill="#231815" d="M294.596,621.781c0,9.895,3.416,16.845,10.483,16.845c7.185,0,10.601-7.304,10.601-16.256
		c0-9.776-3.18-17.079-10.601-17.079C298.012,605.291,294.596,612.24,294.596,621.781 M327.695,621.664
		c0,12.25-7.067,23.911-23.087,23.911c-13.31,0-22.027-9.306-22.027-23.44c0-17.315,12.486-23.676,22.38-23.794
		C316.506,598.105,327.695,605.762,327.695,621.664"/>
	<path fill="#231815" d="M347.249,605.526c1.649-2.238,5.183-6.714,12.957-6.714c1.061,0,2.238,0.117,3.181,0.235v9.895
		c-2.12-1.061-4.358-2.003-7.539-2.003c-4.24,0-6.714,1.768-8.717,2.945v33.806h-11.426v-43.7h11.426v5.536H347.249z"/>
	<path fill="#231815" d="M414.861,610.944c-2.12-3.651-4.947-5.653-9.07-5.653c-2.944,0-5.418,1.413-6.949,2.944
		c-4.123,4.241-4.123,11.19-4.123,13.429c0,10.719,4.241,17.079,10.955,17.079c4.829,0,7.303-2.709,9.069-4.947v-22.852H414.861z
		 M414.861,583.499h11.426v60.31h-11.426v-4.594c-2.355,2.355-6.008,6.243-13.428,6.243c-10.013,0-18.376-8.01-18.376-23.088
		c0-12.839,6.832-24.265,19.082-24.265c7.304,0,10.72,4.123,12.84,6.597v-21.203"/>
	<path fill="#231815" d="M447.843,605.526c1.649-2.238,5.183-6.714,12.957-6.714c1.061,0,2.238,0.117,3.298,0.235v9.895
		c-2.12-1.061-4.357-2.003-7.538-2.003c-4.123,0-6.714,1.768-8.717,2.945v33.806h-11.426v-43.7h11.426V605.526z"/>
	<path fill="#231815" d="M499.789,616.363c-0.472-3.887-1.414-11.072-10.013-11.072c-8.245,0-9.895,6.714-10.954,11.072H499.789z
		 M510.861,631.794c-1.885,4.829-5.418,13.781-20.378,13.781c-15.666,0-23.911-10.837-23.911-24.265
		c0-12.839,8.245-23.205,23.676-23.205c3.77,0,10.602,0.589,15.901,5.89c6.008,6.125,6.126,14.253,6.243,19.082h-33.57
		c0.471,3.181,1.885,15.313,15.313,15.313c7.893,0,11.072-4.005,14.135-7.893L510.861,631.794"/>
	<path fill="#231815" d="M546.788,623.666c-2.238-0.824-4.477-1.648-7.304-1.648c-5.064,0-9.423,2.591-9.423,8.127
		c0,3.77,2.12,7.774,7.892,7.774c4.005,0,6.715-1.767,8.952-3.181v-11.072H546.788z M557.86,643.69h-10.955v-4.947
		c-1.885,2.003-6.125,6.243-14.253,6.243c-8.834,0-14.488-6.125-14.488-14.017c0-10.013,8.246-15.667,18.376-15.667
		c4.122,0,6.949,0.825,10.365,1.885c-0.117-2.238-0.235-4.476-1.178-6.714c-2.002-4.594-6.949-5.654-10.13-5.654
		c-7.303,0-10.365,4.123-12.015,6.479l-2.945-1.413c1.885-4.24,5.301-11.661,18.258-11.661c7.421,0,12.251,2.474,14.724,5.064
		c4.241,4.358,4.358,10.13,4.358,14.135v26.268"/>
	<path fill="#231815" d="M579.181,605.526c1.767-2.238,5.418-6.714,13.781-6.714c2.355,0,5.183,0.471,7.774,2.002
		c2.944,1.768,3.77,3.888,4.476,5.772c1.414-1.768,2.474-3.299,4.83-4.83c3.416-2.355,7.067-2.944,9.423-2.944
		c4.477,0,7.893,1.648,9.777,3.533c3.298,3.299,3.298,7.539,3.298,10.955v30.39h-11.426v-30.39c0-1.649-0.118-3.888-1.767-5.654
		c-1.061-1.178-2.945-1.885-4.712-1.885c-2.474,0-4.829,1.178-6.479,2.945c-1.061,1.06-1.649,2.12-2.356,3.298v31.804h-11.426
		V613.89c0-1.178-0.117-4.123-2.002-6.008c-1.061-1.178-2.945-2.002-4.829-2.002c-1.179,0-3.534,0.235-6.008,2.709
		c-1.413,1.296-1.885,2.355-2.474,3.416v31.804h-11.308v-43.701h11.426V605.526z"/>
	<rect x="188.23" y="583.499" fill="#231815" width="11.426" height="60.191"/>
	<rect x="211.2" y="583.499" fill="#231815" width="11.426" height="60.191"/>
	<path fill="#231815" d="M130.042,625.08l-8.834,18.729h10.601l7.774-17.434C136.52,625.904,133.34,625.434,130.042,625.08"/>
	<path fill="#231815" d="M153.953,583.499h-4.123l-16.491,34.866c3.063,0.707,6.007,1.531,8.717,2.474l8.01-17.904l18.611,40.756
		h12.957L153.953,583.499z"/>
	<path fill="#231815" d="M75.504,631.794c11.308-1.531,26.503-2.355,38.871-2.355c13.782,0,29.094,1.178,41.462,3.063
		c1.06,0.235,1.649-0.354,0.707-0.942c-9.895-5.536-24.854-9.07-41.698-9.07c-15.784,0-29.919,3.181-39.696,8.128
		C73.855,631.205,74.208,632.029,75.504,631.794"/>
</g>
</svg>
